<svg width="28" height="33" viewBox="0 0 28 33" fill="none" xmlns="http://www.w3.org/2000/svg">
<path d="M2.99805 25.2031H3.66699L6.5332 32H5.51758L4.8291 30.291H1.81152L1.12793 32H0.131836L2.99805 25.2031ZM4.5166 29.5098L3.3252 26.5312L2.12891 29.5098H4.5166ZM11.0449 31.9854C10.8496 32.0472 10.5111 32.0781 10.0293 32.0781C9.54753 32.0781 9.13737 32.0195 8.79883 31.9023C8.46354 31.7852 8.17708 31.6126 7.93945 31.3848C7.44792 30.9128 7.20215 30.2585 7.20215 29.4219C7.20215 28.6113 7.49674 27.9733 8.08594 27.5078C8.61328 27.0911 9.26107 26.8828 10.0293 26.8828C10.5046 26.8828 10.8301 26.8991 11.0059 26.9316V27.8008C10.7324 27.7129 10.4199 27.6689 10.0684 27.6689C9.72005 27.6689 9.43034 27.7178 9.19922 27.8154C8.9681 27.9098 8.7793 28.0384 8.63281 28.2012C8.35612 28.5104 8.21777 28.9173 8.21777 29.4219C8.21777 30.2747 8.52539 30.8428 9.14062 31.126C9.35872 31.2269 9.57194 31.2773 9.78027 31.2773C9.98861 31.2773 10.1481 31.2725 10.2588 31.2627C10.3727 31.2529 10.4801 31.2399 10.5811 31.2236C10.7959 31.1878 10.9505 31.1504 11.0449 31.1113V31.9854ZM12.6416 31.1016C12.5342 30.916 12.4479 30.6979 12.3828 30.4473C12.321 30.1966 12.29 29.8695 12.29 29.4658C12.29 29.0622 12.3763 28.6911 12.5488 28.3525C12.7246 28.0107 12.9525 27.7308 13.2324 27.5127C13.776 27.0928 14.4515 26.8828 15.2588 26.8828C15.6787 26.8828 15.9961 26.8926 16.2109 26.9121C16.2109 26.9121 16.3688 26.9284 16.6846 26.9609V32H15.8057L15.7666 31.4189C15.5713 31.6794 15.2734 31.873 14.873 32C14.7201 32.0488 14.5622 32.0732 14.3994 32.0732C14.2399 32.0732 14.082 32.057 13.9258 32.0244C13.7695 31.9919 13.6133 31.9382 13.457 31.8633C13.304 31.7884 13.1576 31.6891 13.0176 31.5654C12.8776 31.4385 12.7523 31.2839 12.6416 31.1016ZM15.708 27.6787C15.4997 27.6527 15.2913 27.6396 15.083 27.6396C14.8779 27.6396 14.6582 27.6771 14.4238 27.752C14.1895 27.8236 13.9893 27.9375 13.8232 28.0938C13.4782 28.4193 13.3057 28.9157 13.3057 29.583C13.3057 30.2145 13.4538 30.6816 13.75 30.9844C13.9746 31.209 14.2448 31.3213 14.5605 31.3213C14.9674 31.3213 15.3027 31.1732 15.5664 30.877C15.6315 30.8021 15.6787 30.7354 15.708 30.6768V27.6787ZM21.4502 27.8545C21.2712 27.8024 21.0563 27.7764 20.8057 27.7764C20.5583 27.7764 20.3548 27.8024 20.1953 27.8545C20.0358 27.9033 19.8958 27.9635 19.7754 28.0352C19.554 28.1654 19.3929 28.3118 19.292 28.4746V32H18.3154V26.9609H19.2529L19.292 27.6592C19.5361 27.3532 19.8926 27.1237 20.3613 26.9707C20.5306 26.9121 20.7243 26.8828 20.9424 26.8828C21.1605 26.8828 21.3298 26.8991 21.4502 26.9316V27.8545ZM22.6416 31.1016C22.5342 30.916 22.4479 30.6979 22.3828 30.4473C22.321 30.1966 22.29 29.8695 22.29 29.4658C22.29 29.0622 22.3763 28.6911 22.5488 28.3525C22.7246 28.0107 22.9525 27.7308 23.2324 27.5127C23.776 27.0928 24.4515 26.8828 25.2588 26.8828C25.6787 26.8828 25.9961 26.8926 26.2109 26.9121C26.2109 26.9121 26.3688 26.9284 26.6846 26.9609V32H25.8057L25.7666 31.4189C25.5713 31.6794 25.2734 31.873 24.873 32C24.7201 32.0488 24.5622 32.0732 24.3994 32.0732C24.2399 32.0732 24.082 32.057 23.9258 32.0244C23.7695 31.9919 23.6133 31.9382 23.457 31.8633C23.304 31.7884 23.1576 31.6891 23.0176 31.5654C22.8776 31.4385 22.7523 31.2839 22.6416 31.1016ZM25.708 27.6787C25.4997 27.6527 25.2913 27.6396 25.083 27.6396C24.8779 27.6396 24.6582 27.6771 24.4238 27.752C24.1895 27.8236 23.9893 27.9375 23.8232 28.0938C23.4782 28.4193 23.3057 28.9157 23.3057 29.583C23.3057 30.2145 23.4538 30.6816 23.75 30.9844C23.9746 31.209 24.2448 31.3213 24.5605 31.3213C24.9674 31.3213 25.3027 31.1732 25.5664 30.877C25.6315 30.8021 25.6787 30.7354 25.708 30.6768V27.6787Z" fill="black"/>
<path d="M10 5V1M18 5V1M9 9H19M7 19H21C21.5304 19 22.0391 18.7893 22.4142 18.4142C22.7893 18.0391 23 17.5304 23 17V5C23 4.46957 22.7893 3.96086 22.4142 3.58579C22.0391 3.21071 21.5304 3 21 3H7C6.46957 3 5.96086 3.21071 5.58579 3.58579C5.21071 3.96086 5 4.46957 5 5V17C5 17.5304 5.21071 18.0391 5.58579 18.4142C5.96086 18.7893 6.46957 19 7 19Z" stroke="black" stroke-width="2" stroke-linecap="round" stroke-linejoin="round"/>
</svg>
