<svg width="332" height="95" viewBox="0 0 332 95" fill="none" xmlns="http://www.w3.org/2000/svg">
<path d="M139.243 25.464C138.571 25.464 137.947 25.352 137.371 25.128C136.811 24.904 136.363 24.544 136.027 24.048C135.691 23.552 135.523 22.912 135.523 22.128C135.523 21.76 135.571 21.352 135.667 20.904C135.779 20.456 135.963 20.096 136.219 19.824L136.507 19.92C135.659 20.384 135.027 20.944 134.611 21.6C134.195 22.256 133.987 22.984 133.987 23.784C133.987 24.36 134.067 24.872 134.227 25.32C134.387 25.752 134.619 26.128 134.923 26.448C135.243 26.784 135.619 27.056 136.051 27.264C136.499 27.488 137.035 27.648 137.659 27.744C138.299 27.84 139.067 27.888 139.963 27.888H141.883V29.592H139.819C138.987 29.592 138.331 29.56 137.851 29.496C137.371 29.432 136.955 29.352 136.603 29.256C135.467 28.936 134.563 28.504 133.891 27.96C133.235 27.432 132.763 26.824 132.475 26.136C132.187 25.448 132.043 24.728 132.043 23.976C132.043 23.192 132.195 22.456 132.499 21.768C132.819 21.08 133.267 20.448 133.843 19.872C134.435 19.296 135.123 18.808 135.907 18.408L137.851 19.344C137.659 19.744 137.507 20.128 137.395 20.496C137.299 20.848 137.251 21.248 137.251 21.696C137.251 22.256 137.379 22.744 137.635 23.16C137.907 23.56 138.435 23.76 139.219 23.76C139.667 23.76 140.035 23.648 140.323 23.424C140.611 23.184 140.827 22.864 140.971 22.464C141.131 22.064 141.211 21.616 141.211 21.12C141.211 19.888 140.867 18.832 140.179 17.952C139.491 17.072 138.523 16.4 137.275 15.936C136.043 15.472 134.595 15.24 132.931 15.24C131.459 15.24 130.147 15.376 128.995 15.648C127.843 15.904 126.875 16.288 126.091 16.8C125.323 17.312 124.747 17.936 124.363 18.672L124.099 19.68C124.083 19.84 124.059 19.992 124.027 20.136C124.011 20.28 124.003 20.424 124.003 20.568C124.003 21.288 124.115 21.896 124.339 22.392C124.563 22.872 124.867 23.232 125.251 23.472C125.651 23.712 126.099 23.832 126.595 23.832C127.155 23.832 127.603 23.648 127.939 23.28C128.275 22.912 128.443 22.384 128.443 21.696C128.443 20.992 128.251 20.456 127.867 20.088C127.499 19.704 127.003 19.512 126.379 19.512C125.931 19.512 125.491 19.624 125.059 19.848C124.627 20.056 124.227 20.344 123.859 20.712L124.291 18.648C124.659 18.376 125.067 18.176 125.515 18.048C125.979 17.904 126.427 17.832 126.859 17.832C127.563 17.832 128.179 17.976 128.707 18.264C129.251 18.552 129.667 18.968 129.955 19.512C130.259 20.056 130.411 20.72 130.411 21.504C130.411 22.32 130.251 23.024 129.931 23.616C129.627 24.208 129.179 24.664 128.587 24.984C128.011 25.304 127.307 25.464 126.475 25.464C125.723 25.464 125.011 25.28 124.339 24.912C123.667 24.528 123.123 23.976 122.707 23.256C122.307 22.52 122.107 21.616 122.107 20.544C122.107 19.488 122.339 18.544 122.803 17.712C123.283 16.88 123.899 16.176 124.651 15.6C125.371 15.056 126.147 14.624 126.979 14.304C127.827 13.984 128.739 13.76 129.715 13.632C130.707 13.488 131.771 13.416 132.907 13.416C134.939 13.416 136.675 13.696 138.115 14.256C139.571 14.8 140.747 15.568 141.643 16.56C142.203 17.152 142.611 17.832 142.867 18.6C143.123 19.352 143.251 20.104 143.251 20.856C143.251 21.384 143.187 21.92 143.059 22.464C142.947 23.008 142.739 23.512 142.435 23.976C142.131 24.424 141.723 24.784 141.211 25.056C140.699 25.328 140.043 25.464 139.243 25.464ZM128.467 27.168C129.379 27.168 130.115 27.336 130.675 27.672C131.251 28.008 131.675 28.432 131.947 28.944C132.219 29.472 132.355 30.008 132.355 30.552C132.355 31.064 132.267 31.52 132.091 31.92C131.931 32.336 131.699 32.72 131.395 33.072L129.283 33.168C129.651 32.816 129.923 32.448 130.099 32.064C130.275 31.68 130.363 31.28 130.363 30.864C130.363 30.496 130.299 30.152 130.171 29.832C130.043 29.528 129.835 29.28 129.547 29.088C129.275 28.912 128.891 28.824 128.395 28.824C128.123 28.824 127.843 28.88 127.555 28.992C127.283 29.104 127.051 29.296 126.859 29.568C126.667 29.856 126.571 30.24 126.571 30.72C126.571 31.184 126.659 31.56 126.835 31.848C127.027 32.152 127.275 32.384 127.579 32.544C127.883 32.72 128.211 32.84 128.563 32.904C128.931 32.984 129.283 33.024 129.619 33.024L131.275 32.976C131.899 32.88 132.435 32.712 132.883 32.472C133.331 32.248 133.723 31.936 134.059 31.536C134.411 31.136 134.755 30.648 135.091 30.072C135.251 29.8 135.387 29.568 135.499 29.376C135.627 29.2 135.747 29.048 135.859 28.92L137.803 29.472C137.643 29.632 137.507 29.816 137.395 30.024C137.283 30.232 137.163 30.448 137.035 30.672C136.603 31.52 136.099 32.248 135.523 32.856C134.963 33.464 134.291 33.92 133.507 34.224C132.723 34.544 131.779 34.704 130.675 34.704H130.171C129.323 34.704 128.539 34.608 127.819 34.416C127.099 34.224 126.483 33.928 125.971 33.528C125.555 33.192 125.227 32.784 124.987 32.304C124.747 31.84 124.627 31.288 124.627 30.648C124.627 29.944 124.787 29.328 125.107 28.8C125.443 28.288 125.899 27.888 126.475 27.6C127.067 27.312 127.731 27.168 128.467 27.168ZM151.156 27.24C150.788 27.24 150.428 27.208 150.076 27.144C149.74 27.096 149.468 27.04 149.26 26.976V25.272C149.42 25.336 149.644 25.392 149.932 25.44C150.236 25.488 150.54 25.512 150.844 25.512C151.596 25.512 152.204 25.352 152.668 25.032C153.148 24.712 153.5 24.248 153.724 23.64C153.948 23.016 154.06 22.264 154.06 21.384C154.06 20.008 153.796 19.032 153.268 18.456C152.74 17.88 151.932 17.592 150.844 17.592C149.884 17.592 149.14 17.808 148.612 18.24C148.1 18.656 147.844 19.288 147.844 20.136C147.844 20.808 147.996 21.328 148.3 21.696C148.62 22.064 149.028 22.248 149.524 22.248C149.604 22.248 149.708 22.24 149.836 22.224C149.964 22.208 150.084 22.184 150.196 22.152L150.532 23.76C150.372 23.872 150.164 23.96 149.908 24.024C149.668 24.072 149.412 24.096 149.14 24.096C148.036 24.096 147.196 23.728 146.62 22.992C146.06 22.24 145.78 21.296 145.78 20.16C145.78 18.736 146.22 17.664 147.1 16.944C147.996 16.208 149.244 15.84 150.844 15.84C152.748 15.84 154.116 16.328 154.948 17.304C155.796 18.264 156.22 19.6 156.22 21.312C156.22 22.432 156.044 23.44 155.692 24.336C155.356 25.232 154.812 25.944 154.06 26.472C153.324 26.984 152.356 27.24 151.156 27.24ZM169.859 27.2727L161.097 18.5114C160.398 17.8125 159.933 17 159.7 16.0739C159.472 15.1477 159.475 14.2273 159.708 13.3125C159.941 12.392 160.404 11.5909 161.097 10.9091C161.808 10.2102 162.617 9.74716 163.526 9.51989C164.441 9.28693 165.353 9.28693 166.262 9.51989C167.177 9.75284 167.989 10.2159 168.7 10.9091L169.859 12.0341L171.018 10.9091C171.734 10.2159 172.546 9.75284 173.455 9.51989C174.364 9.28693 175.273 9.28693 176.183 9.51989C177.097 9.74716 177.91 10.2102 178.62 10.9091C179.313 11.5909 179.776 12.392 180.009 13.3125C180.242 14.2273 180.242 15.1477 180.009 16.0739C179.782 17 179.319 17.8125 178.62 18.5114L169.859 27.2727ZM169.859 24.6222L177.29 17.1818C177.745 16.733 178.046 16.2074 178.194 15.6051C178.347 15.0028 178.35 14.4034 178.202 13.8068C178.055 13.2045 177.756 12.6847 177.308 12.2472C176.842 11.7869 176.31 11.483 175.714 11.3352C175.123 11.1818 174.529 11.1818 173.933 11.3352C173.336 11.4886 172.799 11.7955 172.322 12.2557L169.859 14.6506L167.396 12.2557C166.924 11.7955 166.387 11.4886 165.785 11.3352C165.188 11.1818 164.592 11.1818 163.995 11.3352C163.404 11.483 162.876 11.7869 162.41 12.2472C161.961 12.6847 161.663 13.2045 161.515 13.8068C161.367 14.4034 161.37 15.0028 161.523 15.6051C161.677 16.2074 161.978 16.733 162.427 17.1818L169.859 24.6222ZM188.773 27.24C188.405 27.24 188.045 27.208 187.693 27.144C187.357 27.096 187.085 27.04 186.877 26.976V25.272C187.037 25.336 187.261 25.392 187.549 25.44C187.853 25.488 188.157 25.512 188.461 25.512C189.213 25.512 189.821 25.352 190.285 25.032C190.765 24.712 191.117 24.248 191.341 23.64C191.565 23.016 191.677 22.264 191.677 21.384C191.677 20.008 191.413 19.032 190.885 18.456C190.357 17.88 189.549 17.592 188.461 17.592C187.501 17.592 186.757 17.808 186.229 18.24C185.717 18.656 185.461 19.288 185.461 20.136C185.461 20.808 185.613 21.328 185.917 21.696C186.237 22.064 186.645 22.248 187.141 22.248C187.221 22.248 187.325 22.24 187.453 22.224C187.581 22.208 187.701 22.184 187.813 22.152L188.149 23.76C187.989 23.872 187.781 23.96 187.525 24.024C187.285 24.072 187.029 24.096 186.757 24.096C185.653 24.096 184.813 23.728 184.237 22.992C183.677 22.24 183.397 21.296 183.397 20.16C183.397 18.736 183.837 17.664 184.717 16.944C185.613 16.208 186.861 15.84 188.461 15.84C190.365 15.84 191.733 16.328 192.565 17.304C193.413 18.264 193.837 19.6 193.837 21.312C193.837 22.432 193.661 23.44 193.309 24.336C192.973 25.232 192.429 25.944 191.677 26.472C190.941 26.984 189.973 27.24 188.773 27.24ZM213.587 25.464C212.915 25.464 212.291 25.352 211.715 25.128C211.155 24.904 210.707 24.544 210.371 24.048C210.035 23.552 209.867 22.912 209.867 22.128C209.867 21.76 209.915 21.352 210.011 20.904C210.123 20.456 210.307 20.096 210.563 19.824L210.851 19.92C210.003 20.384 209.371 20.944 208.955 21.6C208.539 22.256 208.331 22.984 208.331 23.784C208.331 24.36 208.411 24.872 208.571 25.32C208.731 25.752 208.963 26.128 209.267 26.448C209.587 26.784 209.963 27.056 210.395 27.264C210.843 27.488 211.379 27.648 212.003 27.744C212.643 27.84 213.411 27.888 214.307 27.888H216.227V29.592H214.163C213.331 29.592 212.675 29.56 212.195 29.496C211.715 29.432 211.299 29.352 210.947 29.256C209.811 28.936 208.907 28.504 208.235 27.96C207.579 27.432 207.107 26.824 206.819 26.136C206.531 25.448 206.387 24.728 206.387 23.976C206.387 23.192 206.539 22.456 206.843 21.768C207.163 21.08 207.611 20.448 208.187 19.872C208.779 19.296 209.467 18.808 210.251 18.408L212.195 19.344C212.003 19.744 211.851 20.128 211.739 20.496C211.643 20.848 211.595 21.248 211.595 21.696C211.595 22.256 211.723 22.744 211.979 23.16C212.251 23.56 212.779 23.76 213.563 23.76C214.011 23.76 214.379 23.648 214.667 23.424C214.955 23.184 215.171 22.864 215.315 22.464C215.475 22.064 215.555 21.616 215.555 21.12C215.555 19.888 215.211 18.832 214.523 17.952C213.835 17.072 212.867 16.4 211.619 15.936C210.387 15.472 208.939 15.24 207.275 15.24C205.803 15.24 204.491 15.376 203.339 15.648C202.187 15.904 201.219 16.288 200.435 16.8C199.667 17.312 199.091 17.936 198.707 18.672L198.443 19.68C198.427 19.84 198.403 19.992 198.371 20.136C198.355 20.28 198.347 20.424 198.347 20.568C198.347 21.288 198.459 21.896 198.683 22.392C198.907 22.872 199.211 23.232 199.595 23.472C199.995 23.712 200.443 23.832 200.939 23.832C201.499 23.832 201.947 23.648 202.283 23.28C202.619 22.912 202.787 22.384 202.787 21.696C202.787 20.992 202.595 20.456 202.211 20.088C201.843 19.704 201.347 19.512 200.723 19.512C200.275 19.512 199.835 19.624 199.403 19.848C198.971 20.056 198.571 20.344 198.203 20.712L198.635 18.648C199.003 18.376 199.411 18.176 199.859 18.048C200.323 17.904 200.771 17.832 201.203 17.832C201.907 17.832 202.523 17.976 203.051 18.264C203.595 18.552 204.011 18.968 204.299 19.512C204.603 20.056 204.755 20.72 204.755 21.504C204.755 22.32 204.595 23.024 204.275 23.616C203.971 24.208 203.523 24.664 202.931 24.984C202.355 25.304 201.651 25.464 200.819 25.464C200.067 25.464 199.355 25.28 198.683 24.912C198.011 24.528 197.467 23.976 197.051 23.256C196.651 22.52 196.451 21.616 196.451 20.544C196.451 19.488 196.683 18.544 197.147 17.712C197.627 16.88 198.243 16.176 198.995 15.6C199.715 15.056 200.491 14.624 201.323 14.304C202.171 13.984 203.083 13.76 204.059 13.632C205.051 13.488 206.115 13.416 207.251 13.416C209.283 13.416 211.019 13.696 212.459 14.256C213.915 14.8 215.091 15.568 215.987 16.56C216.547 17.152 216.955 17.832 217.211 18.6C217.467 19.352 217.595 20.104 217.595 20.856C217.595 21.384 217.531 21.92 217.403 22.464C217.291 23.008 217.083 23.512 216.779 23.976C216.475 24.424 216.067 24.784 215.555 25.056C215.043 25.328 214.387 25.464 213.587 25.464ZM202.811 27.168C203.723 27.168 204.459 27.336 205.019 27.672C205.595 28.008 206.019 28.432 206.291 28.944C206.563 29.472 206.699 30.008 206.699 30.552C206.699 31.064 206.611 31.52 206.435 31.92C206.275 32.336 206.043 32.72 205.739 33.072L203.627 33.168C203.995 32.816 204.267 32.448 204.443 32.064C204.619 31.68 204.707 31.28 204.707 30.864C204.707 30.496 204.643 30.152 204.515 29.832C204.387 29.528 204.179 29.28 203.891 29.088C203.619 28.912 203.235 28.824 202.739 28.824C202.467 28.824 202.187 28.88 201.899 28.992C201.627 29.104 201.395 29.296 201.203 29.568C201.011 29.856 200.915 30.24 200.915 30.72C200.915 31.184 201.003 31.56 201.179 31.848C201.371 32.152 201.619 32.384 201.923 32.544C202.227 32.72 202.555 32.84 202.907 32.904C203.275 32.984 203.627 33.024 203.963 33.024L205.619 32.976C206.243 32.88 206.779 32.712 207.227 32.472C207.675 32.248 208.067 31.936 208.403 31.536C208.755 31.136 209.099 30.648 209.435 30.072C209.595 29.8 209.731 29.568 209.843 29.376C209.971 29.2 210.091 29.048 210.203 28.92L212.147 29.472C211.987 29.632 211.851 29.816 211.739 30.024C211.627 30.232 211.507 30.448 211.379 30.672C210.947 31.52 210.443 32.248 209.867 32.856C209.307 33.464 208.635 33.92 207.851 34.224C207.067 34.544 206.123 34.704 205.019 34.704H204.515C203.667 34.704 202.883 34.608 202.163 34.416C201.443 34.224 200.827 33.928 200.315 33.528C199.899 33.192 199.571 32.784 199.331 32.304C199.091 31.84 198.971 31.288 198.971 30.648C198.971 29.944 199.131 29.328 199.451 28.8C199.787 28.288 200.243 27.888 200.819 27.6C201.411 27.312 202.075 27.168 202.811 27.168Z" fill="white"/>
<path d="M92.4545 39.4545L77.8523 24.8523C76.6875 23.6875 75.911 22.3333 75.5227 20.7898C75.1439 19.2462 75.1487 17.7121 75.5369 16.1875C75.9252 14.6534 76.697 13.3182 77.8523 12.1818C79.036 11.017 80.3854 10.2453 81.9006 9.86648C83.4252 9.47822 84.9451 9.47822 86.4602 9.86648C87.9848 10.2547 89.339 11.0265 90.5227 12.1818L92.4545 14.0568L94.3864 12.1818C95.5795 11.0265 96.9337 10.2547 98.4489 9.86648C99.964 9.47822 101.479 9.47822 102.994 9.86648C104.519 10.2453 105.873 11.017 107.057 12.1818C108.212 13.3182 108.984 14.6534 109.372 16.1875C109.76 17.7121 109.76 19.2462 109.372 20.7898C108.993 22.3333 108.222 23.6875 107.057 24.8523L92.4545 39.4545ZM92.4545 35.0369L104.841 22.6364C105.598 21.8883 106.1 21.0123 106.347 20.0085C106.602 19.0047 106.607 18.0057 106.361 17.0114C106.115 16.0076 105.617 15.1411 104.869 14.4119C104.093 13.6449 103.207 13.1383 102.213 12.892C101.228 12.6364 100.239 12.6364 99.2443 12.892C98.25 13.1477 97.3551 13.6591 96.5597 14.4261L92.4545 18.4176L88.3494 14.4261C87.5634 13.6591 86.6686 13.1477 85.6648 12.892C84.6705 12.6364 83.6761 12.6364 82.6818 12.892C81.697 13.1383 80.8163 13.6449 80.0398 14.4119C79.2917 15.1411 78.7945 16.0076 78.5483 17.0114C78.3021 18.0057 78.3068 19.0047 78.5625 20.0085C78.8182 21.0123 79.3201 21.8883 80.0682 22.6364L92.4545 35.0369Z" fill="white"/>
<path d="M247.455 39.4545L232.852 24.8523C231.688 23.6875 230.911 22.3333 230.523 20.7898C230.144 19.2462 230.149 17.7121 230.537 16.1875C230.925 14.6534 231.697 13.3182 232.852 12.1818C234.036 11.017 235.385 10.2453 236.901 9.86648C238.425 9.47822 239.945 9.47822 241.46 9.86648C242.985 10.2547 244.339 11.0265 245.523 12.1818L247.455 14.0568L249.386 12.1818C250.58 11.0265 251.934 10.2547 253.449 9.86648C254.964 9.47822 256.479 9.47822 257.994 9.86648C259.519 10.2453 260.873 11.017 262.057 12.1818C263.212 13.3182 263.984 14.6534 264.372 16.1875C264.76 17.7121 264.76 19.2462 264.372 20.7898C263.993 22.3333 263.222 23.6875 262.057 24.8523L247.455 39.4545ZM247.455 35.0369L259.841 22.6364C260.598 21.8883 261.1 21.0123 261.347 20.0085C261.602 19.0047 261.607 18.0057 261.361 17.0114C261.115 16.0076 260.617 15.1411 259.869 14.4119C259.093 13.6449 258.207 13.1383 257.213 12.892C256.228 12.6364 255.239 12.6364 254.244 12.892C253.25 13.1477 252.355 13.6591 251.56 14.4261L247.455 18.4176L243.349 14.4261C242.563 13.6591 241.669 13.1477 240.665 12.892C239.67 12.6364 238.676 12.6364 237.682 12.892C236.697 13.1383 235.816 13.6449 235.04 14.4119C234.292 15.1411 233.795 16.0076 233.548 17.0114C233.302 18.0057 233.307 19.0047 233.562 20.0085C233.818 21.0123 234.32 21.8883 235.068 22.6364L247.455 35.0369Z" fill="white"/>
<path d="M63 14H22C10.9543 14 2 22.9543 2 34V94.5" stroke="white" stroke-width="3"/>
<path d="M271 14H312C323.046 14 332 22.9543 332 34V94.5" stroke="white" stroke-width="3"/>
</svg>
