<svg width="348" height="57" viewBox="0 0 348 57" fill="none" xmlns="http://www.w3.org/2000/svg">
<path d="M202.757 32.6445C203.429 32.6445 204.053 32.7565 204.629 32.9805C205.189 33.2045 205.637 33.5645 205.973 34.0605C206.309 34.5565 206.477 35.1965 206.477 35.9805C206.477 36.3485 206.429 36.7565 206.333 37.2045C206.221 37.6525 206.037 38.0125 205.781 38.2845L205.493 38.1885C206.341 37.7245 206.973 37.1645 207.389 36.5085C207.805 35.8525 208.013 35.1245 208.013 34.3245C208.013 33.7485 207.933 33.2365 207.773 32.7885C207.613 32.3565 207.381 31.9805 207.077 31.6605C206.757 31.3245 206.381 31.0525 205.949 30.8445C205.501 30.6205 204.965 30.4605 204.341 30.3645C203.701 30.2685 202.933 30.2205 202.037 30.2205H200.117V28.5165H202.181C203.013 28.5165 203.669 28.5485 204.149 28.6125C204.629 28.6765 205.045 28.7565 205.397 28.8525C206.533 29.1725 207.437 29.6045 208.109 30.1485C208.765 30.6765 209.237 31.2845 209.525 31.9725C209.813 32.6605 209.957 33.3805 209.957 34.1325C209.957 34.9165 209.805 35.6525 209.501 36.3405C209.181 37.0285 208.733 37.6605 208.157 38.2365C207.565 38.8125 206.877 39.3005 206.093 39.7005L204.149 38.7645C204.341 38.3645 204.493 37.9805 204.605 37.6125C204.701 37.2605 204.749 36.8605 204.749 36.4125C204.749 35.8525 204.621 35.3645 204.365 34.9485C204.093 34.5485 203.565 34.3485 202.781 34.3485C202.333 34.3485 201.965 34.4605 201.677 34.6845C201.389 34.9245 201.173 35.2445 201.029 35.6445C200.869 36.0445 200.789 36.4925 200.789 36.9885C200.789 38.2205 201.133 39.2765 201.821 40.1565C202.509 41.0365 203.477 41.7085 204.725 42.1725C205.957 42.6365 207.405 42.8685 209.069 42.8685C210.541 42.8685 211.853 42.7325 213.005 42.4605C214.157 42.2045 215.125 41.8205 215.909 41.3085C216.677 40.7965 217.253 40.1725 217.637 39.4365L217.901 38.4285C217.917 38.2685 217.941 38.1165 217.973 37.9725C217.989 37.8285 217.997 37.6845 217.997 37.5405C217.997 36.8205 217.885 36.2125 217.661 35.7165C217.437 35.2365 217.133 34.8765 216.749 34.6365C216.349 34.3965 215.901 34.2765 215.405 34.2765C214.845 34.2765 214.397 34.4605 214.061 34.8285C213.725 35.1965 213.557 35.7245 213.557 36.4125C213.557 37.1165 213.749 37.6525 214.133 38.0205C214.501 38.4045 214.997 38.5965 215.621 38.5965C216.069 38.5965 216.509 38.4845 216.941 38.2605C217.373 38.0525 217.773 37.7645 218.141 37.3965L217.709 39.4605C217.341 39.7325 216.933 39.9325 216.485 40.0605C216.021 40.2045 215.573 40.2765 215.141 40.2765C214.437 40.2765 213.821 40.1325 213.293 39.8445C212.749 39.5565 212.333 39.1405 212.045 38.5965C211.741 38.0525 211.589 37.3885 211.589 36.6045C211.589 35.7885 211.749 35.0845 212.069 34.4925C212.373 33.9005 212.821 33.4445 213.413 33.1245C213.989 32.8045 214.693 32.6445 215.525 32.6445C216.277 32.6445 216.989 32.8285 217.661 33.1965C218.333 33.5805 218.877 34.1325 219.293 34.8525C219.693 35.5885 219.893 36.4925 219.893 37.5645C219.893 38.6205 219.661 39.5645 219.197 40.3965C218.717 41.2285 218.101 41.9325 217.349 42.5085C216.629 43.0525 215.853 43.4845 215.021 43.8045C214.173 44.1245 213.261 44.3485 212.285 44.4765C211.293 44.6205 210.229 44.6925 209.093 44.6925C207.061 44.6925 205.325 44.4125 203.885 43.8525C202.429 43.3085 201.253 42.5405 200.357 41.5485C199.797 40.9565 199.389 40.2765 199.133 39.5085C198.877 38.7565 198.749 38.0045 198.749 37.2525C198.749 36.7245 198.813 36.1885 198.941 35.6445C199.053 35.1005 199.261 34.5965 199.565 34.1325C199.869 33.6845 200.277 33.3245 200.789 33.0525C201.301 32.7805 201.957 32.6445 202.757 32.6445ZM213.533 30.9405C212.621 30.9405 211.885 30.7725 211.325 30.4365C210.749 30.1005 210.325 29.6765 210.053 29.1645C209.781 28.6365 209.645 28.1005 209.645 27.5565C209.645 27.0445 209.733 26.5885 209.909 26.1885C210.069 25.7725 210.301 25.3885 210.605 25.0365L212.717 24.9405C212.349 25.2925 212.077 25.6605 211.901 26.0445C211.725 26.4285 211.637 26.8285 211.637 27.2445C211.637 27.6125 211.701 27.9565 211.829 28.2765C211.957 28.5805 212.165 28.8285 212.453 29.0205C212.725 29.1965 213.109 29.2845 213.605 29.2845C213.877 29.2845 214.157 29.2285 214.445 29.1165C214.717 29.0045 214.949 28.8125 215.141 28.5405C215.333 28.2525 215.429 27.8685 215.429 27.3885C215.429 26.9245 215.341 26.5485 215.165 26.2605C214.973 25.9565 214.725 25.7245 214.421 25.5645C214.117 25.3885 213.789 25.2685 213.437 25.2045C213.069 25.1245 212.717 25.0845 212.381 25.0845L210.725 25.1325C210.101 25.2285 209.565 25.3965 209.117 25.6365C208.669 25.8605 208.277 26.1725 207.941 26.5725C207.589 26.9725 207.245 27.4605 206.909 28.0365C206.749 28.3085 206.613 28.5405 206.501 28.7325C206.373 28.9085 206.253 29.0605 206.141 29.1885L204.197 28.6365C204.357 28.4765 204.493 28.2925 204.605 28.0845C204.717 27.8765 204.837 27.6605 204.965 27.4365C205.397 26.5885 205.901 25.8605 206.477 25.2525C207.037 24.6445 207.709 24.1885 208.493 23.8845C209.277 23.5645 210.221 23.4045 211.325 23.4045H211.829C212.677 23.4045 213.461 23.5005 214.181 23.6925C214.901 23.8845 215.517 24.1805 216.029 24.5805C216.445 24.9165 216.773 25.3245 217.013 25.8045C217.253 26.2685 217.373 26.8205 217.373 27.4605C217.373 28.1645 217.213 28.7805 216.893 29.3085C216.557 29.8205 216.101 30.2205 215.525 30.5085C214.933 30.7965 214.269 30.9405 213.533 30.9405ZM190.844 30.8685C191.212 30.8685 191.572 30.9005 191.924 30.9645C192.26 31.0125 192.532 31.0685 192.74 31.1325V32.8365C192.58 32.7725 192.356 32.7165 192.068 32.6685C191.764 32.6205 191.46 32.5965 191.156 32.5965C190.404 32.5965 189.796 32.7565 189.332 33.0765C188.852 33.3965 188.5 33.8605 188.276 34.4685C188.052 35.0925 187.94 35.8445 187.94 36.7245C187.94 38.1005 188.204 39.0765 188.732 39.6525C189.26 40.2285 190.068 40.5165 191.156 40.5165C192.116 40.5165 192.86 40.3005 193.388 39.8685C193.9 39.4525 194.156 38.8205 194.156 37.9725C194.156 37.3005 194.004 36.7805 193.7 36.4125C193.38 36.0445 192.972 35.8605 192.476 35.8605C192.396 35.8605 192.292 35.8685 192.164 35.8845C192.036 35.9005 191.916 35.9245 191.804 35.9565L191.468 34.3485C191.628 34.2365 191.836 34.1485 192.092 34.0845C192.332 34.0365 192.588 34.0125 192.86 34.0125C193.964 34.0125 194.804 34.3805 195.38 35.1165C195.94 35.8685 196.22 36.8125 196.22 37.9485C196.22 39.3725 195.78 40.4445 194.9 41.1645C194.004 41.9005 192.756 42.2685 191.156 42.2685C189.252 42.2685 187.884 41.7805 187.052 40.8045C186.204 39.8445 185.78 38.5085 185.78 36.7965C185.78 35.6765 185.956 34.6685 186.308 33.7725C186.644 32.8765 187.188 32.1645 187.94 31.6365C188.676 31.1245 189.644 30.8685 190.844 30.8685ZM172.141 30.8357L180.903 39.5971C181.602 40.296 182.067 41.1085 182.3 42.0346C182.528 42.9607 182.525 43.8812 182.292 44.796C182.059 45.7164 181.596 46.5176 180.903 47.1994C180.192 47.8982 179.383 48.3613 178.474 48.5886C177.559 48.8215 176.647 48.8215 175.738 48.5886C174.823 48.3556 174.011 47.8926 173.3 47.1994L172.141 46.0744L170.982 47.1994C170.266 47.8926 169.454 48.3556 168.545 48.5886C167.636 48.8215 166.727 48.8215 165.817 48.5886C164.903 48.3613 164.09 47.8982 163.38 47.1994C162.687 46.5176 162.224 45.7164 161.991 44.796C161.758 43.8812 161.758 42.9607 161.991 42.0346C162.218 41.1085 162.681 40.296 163.38 39.5971L172.141 30.8357ZM172.141 33.4863L164.71 40.9266C164.255 41.3755 163.954 41.9011 163.806 42.5033C163.653 43.1056 163.65 43.7051 163.798 44.3016C163.945 44.9039 164.244 45.4238 164.692 45.8613C165.158 46.3215 165.69 46.6255 166.286 46.7732C166.877 46.9266 167.471 46.9266 168.067 46.7732C168.664 46.6198 169.201 46.313 169.678 45.8528L172.141 43.4579L174.604 45.8528C175.076 46.313 175.613 46.6198 176.215 46.7732C176.812 46.9266 177.408 46.9266 178.005 46.7732C178.596 46.6255 179.124 46.3215 179.59 45.8613C180.039 45.4238 180.337 44.9039 180.485 44.3016C180.633 43.7051 180.63 43.1056 180.477 42.5033C180.323 41.9011 180.022 41.3755 179.573 40.9266L172.141 33.4863ZM153.227 30.8685C153.595 30.8685 153.955 30.9005 154.307 30.9645C154.643 31.0125 154.915 31.0685 155.123 31.1325V32.8365C154.963 32.7725 154.739 32.7165 154.451 32.6685C154.147 32.6205 153.843 32.5965 153.539 32.5965C152.787 32.5965 152.179 32.7565 151.715 33.0765C151.235 33.3965 150.883 33.8605 150.659 34.4685C150.435 35.0925 150.323 35.8445 150.323 36.7245C150.323 38.1005 150.587 39.0765 151.115 39.6525C151.643 40.2285 152.451 40.5165 153.539 40.5165C154.499 40.5165 155.243 40.3005 155.771 39.8685C156.283 39.4525 156.539 38.8205 156.539 37.9725C156.539 37.3005 156.387 36.7805 156.083 36.4125C155.763 36.0445 155.355 35.8605 154.859 35.8605C154.779 35.8605 154.675 35.8685 154.547 35.8845C154.419 35.9005 154.299 35.9245 154.187 35.9565L153.851 34.3485C154.011 34.2365 154.219 34.1485 154.475 34.0845C154.715 34.0365 154.971 34.0125 155.243 34.0125C156.347 34.0125 157.187 34.3805 157.763 35.1165C158.323 35.8685 158.603 36.8125 158.603 37.9485C158.603 39.3725 158.163 40.4445 157.283 41.1645C156.387 41.9005 155.139 42.2685 153.539 42.2685C151.635 42.2685 150.267 41.7805 149.435 40.8045C148.587 39.8445 148.163 38.5085 148.163 36.7965C148.163 35.6765 148.339 34.6685 148.691 33.7725C149.027 32.8765 149.571 32.1645 150.323 31.6365C151.059 31.1245 152.027 30.8685 153.227 30.8685ZM128.413 32.6445C129.085 32.6445 129.709 32.7565 130.285 32.9805C130.845 33.2045 131.293 33.5645 131.629 34.0605C131.965 34.5565 132.133 35.1965 132.133 35.9805C132.133 36.3485 132.085 36.7565 131.989 37.2045C131.877 37.6525 131.693 38.0125 131.437 38.2845L131.149 38.1885C131.997 37.7245 132.629 37.1645 133.045 36.5085C133.461 35.8525 133.669 35.1245 133.669 34.3245C133.669 33.7485 133.589 33.2365 133.429 32.7885C133.269 32.3565 133.037 31.9805 132.733 31.6605C132.413 31.3245 132.037 31.0525 131.605 30.8445C131.157 30.6205 130.621 30.4605 129.997 30.3645C129.357 30.2685 128.589 30.2205 127.693 30.2205L125.773 30.2205V28.5165L127.837 28.5165C128.669 28.5165 129.325 28.5485 129.805 28.6125C130.285 28.6765 130.701 28.7565 131.053 28.8525C132.189 29.1725 133.093 29.6045 133.765 30.1485C134.421 30.6765 134.893 31.2845 135.181 31.9725C135.469 32.6605 135.613 33.3805 135.613 34.1325C135.613 34.9165 135.461 35.6525 135.157 36.3405C134.837 37.0285 134.389 37.6605 133.813 38.2365C133.221 38.8125 132.533 39.3005 131.749 39.7005L129.805 38.7645C129.997 38.3645 130.149 37.9805 130.261 37.6125C130.357 37.2605 130.405 36.8605 130.405 36.4125C130.405 35.8525 130.277 35.3645 130.021 34.9485C129.749 34.5485 129.221 34.3485 128.437 34.3485C127.989 34.3485 127.621 34.4605 127.333 34.6845C127.045 34.9245 126.829 35.2445 126.685 35.6445C126.525 36.0445 126.445 36.4925 126.445 36.9885C126.445 38.2205 126.789 39.2765 127.477 40.1565C128.165 41.0365 129.133 41.7085 130.381 42.1725C131.613 42.6365 133.061 42.8685 134.725 42.8685C136.197 42.8685 137.509 42.7325 138.661 42.4605C139.813 42.2045 140.781 41.8205 141.565 41.3085C142.333 40.7965 142.909 40.1725 143.293 39.4365L143.557 38.4285C143.573 38.2685 143.597 38.1165 143.629 37.9725C143.645 37.8285 143.653 37.6845 143.653 37.5405C143.653 36.8205 143.541 36.2125 143.317 35.7165C143.093 35.2365 142.789 34.8765 142.405 34.6365C142.005 34.3965 141.557 34.2765 141.061 34.2765C140.501 34.2765 140.053 34.4605 139.717 34.8285C139.381 35.1965 139.213 35.7245 139.213 36.4125C139.213 37.1165 139.405 37.6525 139.789 38.0205C140.157 38.4045 140.653 38.5965 141.277 38.5965C141.725 38.5965 142.165 38.4845 142.597 38.2605C143.029 38.0525 143.429 37.7645 143.797 37.3965L143.365 39.4605C142.997 39.7325 142.589 39.9325 142.141 40.0605C141.677 40.2045 141.229 40.2765 140.797 40.2765C140.093 40.2765 139.477 40.1325 138.949 39.8445C138.405 39.5565 137.989 39.1405 137.701 38.5965C137.397 38.0525 137.245 37.3885 137.245 36.6045C137.245 35.7885 137.405 35.0845 137.725 34.4925C138.029 33.9005 138.477 33.4445 139.069 33.1245C139.645 32.8045 140.349 32.6445 141.181 32.6445C141.933 32.6445 142.645 32.8285 143.317 33.1965C143.989 33.5805 144.533 34.1325 144.949 34.8525C145.349 35.5885 145.549 36.4925 145.549 37.5645C145.549 38.6205 145.317 39.5645 144.853 40.3965C144.373 41.2285 143.757 41.9325 143.005 42.5085C142.285 43.0525 141.509 43.4845 140.677 43.8045C139.829 44.1245 138.917 44.3485 137.941 44.4765C136.949 44.6205 135.885 44.6925 134.749 44.6925C132.717 44.6925 130.981 44.4125 129.541 43.8525C128.085 43.3085 126.909 42.5405 126.013 41.5485C125.453 40.9565 125.045 40.2765 124.789 39.5085C124.533 38.7565 124.405 38.0045 124.405 37.2525C124.405 36.7245 124.469 36.1885 124.597 35.6445C124.709 35.1005 124.917 34.5965 125.221 34.1325C125.525 33.6845 125.933 33.3245 126.445 33.0525C126.957 32.7805 127.613 32.6445 128.413 32.6445ZM139.189 30.9405C138.277 30.9405 137.541 30.7725 136.981 30.4365C136.405 30.1005 135.981 29.6765 135.709 29.1645C135.437 28.6365 135.301 28.1005 135.301 27.5565C135.301 27.0445 135.389 26.5885 135.565 26.1885C135.725 25.7725 135.957 25.3885 136.261 25.0365L138.373 24.9405C138.005 25.2925 137.733 25.6605 137.557 26.0445C137.381 26.4285 137.293 26.8285 137.293 27.2445C137.293 27.6125 137.357 27.9565 137.485 28.2765C137.613 28.5805 137.821 28.8285 138.109 29.0205C138.381 29.1965 138.765 29.2845 139.261 29.2845C139.533 29.2845 139.813 29.2285 140.101 29.1165C140.373 29.0045 140.605 28.8125 140.797 28.5405C140.989 28.2525 141.085 27.8685 141.085 27.3885C141.085 26.9245 140.997 26.5485 140.821 26.2605C140.629 25.9565 140.381 25.7245 140.077 25.5645C139.773 25.3885 139.445 25.2685 139.093 25.2045C138.725 25.1245 138.373 25.0845 138.037 25.0845L136.381 25.1325C135.757 25.2285 135.221 25.3965 134.773 25.6365C134.325 25.8605 133.933 26.1725 133.597 26.5725C133.245 26.9725 132.901 27.4605 132.565 28.0365C132.405 28.3085 132.269 28.5405 132.157 28.7325C132.029 28.9085 131.909 29.0605 131.797 29.1885L129.853 28.6365C130.013 28.4765 130.149 28.2925 130.261 28.0845C130.373 27.8765 130.493 27.6605 130.621 27.4365C131.053 26.5885 131.557 25.8605 132.133 25.2525C132.693 24.6445 133.365 24.1885 134.149 23.8845C134.933 23.5645 135.877 23.4045 136.981 23.4045H137.485C138.333 23.4045 139.117 23.5005 139.837 23.6925C140.557 23.8845 141.173 24.1805 141.685 24.5805C142.101 24.9165 142.429 25.3245 142.669 25.8045C142.909 26.2685 143.029 26.8205 143.029 27.4605C143.029 28.1645 142.869 28.7805 142.549 29.3085C142.213 29.8205 141.757 30.2205 141.181 30.5085C140.589 30.7965 139.925 30.9405 139.189 30.9405Z" fill="white"/>
<path d="M249.545 17.0455L264.148 31.6477C265.312 32.8125 266.089 34.1667 266.477 35.7102C266.856 37.2538 266.851 38.7879 266.463 40.3125C266.075 41.8466 265.303 43.1818 264.148 44.3182C262.964 45.483 261.615 46.2547 260.099 46.6335C258.575 47.0218 257.055 47.0218 255.54 46.6335C254.015 46.2453 252.661 45.4735 251.477 44.3182L249.545 42.4432L247.614 44.3182C246.42 45.4735 245.066 46.2453 243.551 46.6335C242.036 47.0218 240.521 47.0218 239.006 46.6335C237.481 46.2547 236.127 45.483 234.943 44.3182C233.788 43.1818 233.016 41.8466 232.628 40.3125C232.24 38.7879 232.24 37.2538 232.628 35.7102C233.007 34.1667 233.778 32.8125 234.943 31.6477L249.545 17.0455ZM249.545 21.4631L237.159 33.8636C236.402 34.6117 235.9 35.4877 235.653 36.4915C235.398 37.4953 235.393 38.4943 235.639 39.4886C235.885 40.4924 236.383 41.3589 237.131 42.0881C237.907 42.8551 238.793 43.3617 239.787 43.608C240.772 43.8636 241.761 43.8636 242.756 43.608C243.75 43.3523 244.645 42.8409 245.44 42.0739L249.545 38.0824L253.651 42.0739C254.437 42.8409 255.331 43.3523 256.335 43.608C257.33 43.8636 258.324 43.8636 259.318 43.608C260.303 43.3617 261.184 42.8551 261.96 42.0881C262.708 41.3589 263.205 40.4924 263.452 39.4886C263.698 38.4943 263.693 37.4953 263.438 36.4915C263.182 35.4877 262.68 34.6117 261.932 33.8636L249.545 21.4631Z" fill="white"/>
<path d="M94.5455 17.0455L109.148 31.6477C110.312 32.8125 111.089 34.1667 111.477 35.7102C111.856 37.2538 111.851 38.7879 111.463 40.3125C111.075 41.8466 110.303 43.1818 109.148 44.3182C107.964 45.483 106.615 46.2547 105.099 46.6335C103.575 47.0218 102.055 47.0218 100.54 46.6335C99.0152 46.2453 97.661 45.4735 96.4773 44.3182L94.5455 42.4432L92.6136 44.3182C91.4205 45.4735 90.0663 46.2453 88.5511 46.6335C87.036 47.0218 85.5208 47.0218 84.0057 46.6335C82.4811 46.2547 81.1269 45.483 79.9432 44.3182C78.7879 43.1818 78.0161 41.8466 77.6278 40.3125C77.2396 38.7879 77.2396 37.2538 77.6278 35.7102C78.0066 34.1667 78.7784 32.8125 79.9432 31.6477L94.5455 17.0455ZM94.5455 21.4631L82.1591 33.8636C81.4015 34.6117 80.8996 35.4877 80.6534 36.4915C80.3977 37.4953 80.393 38.4943 80.6392 39.4886C80.8854 40.4924 81.3826 41.3589 82.1307 42.0881C82.9072 42.8551 83.7926 43.3617 84.7869 43.608C85.7718 43.8636 86.7614 43.8636 87.7557 43.608C88.75 43.3523 89.6449 42.8409 90.4403 42.0739L94.5455 38.0824L98.6506 42.0739C99.4366 42.8409 100.331 43.3523 101.335 43.608C102.33 43.8636 103.324 43.8636 104.318 43.608C105.303 43.3617 106.184 42.8551 106.96 42.0881C107.708 41.3589 108.205 40.4924 108.452 39.4886C108.698 38.4943 108.693 37.4953 108.438 36.4915C108.182 35.4877 107.68 34.6117 106.932 33.8636L94.5455 21.4631Z" fill="white"/>
<path d="M294 48L326 48C337.046 48 346 39.0457 346 28V0" stroke="white" stroke-width="3"/>
<path d="M54 48.1296L22 48.1296C10.9543 48.1296 2 39.1753 2 28.1296L2 0" stroke="white" stroke-width="3"/>
</svg>
