<svg width="28" height="36" viewBox="0 0 28 36" fill="none" xmlns="http://www.w3.org/2000/svg">
<path d="M6.16675 16.6667L10.9438 11.8896C11.3345 11.499 11.8643 11.2796 12.4167 11.2796C12.9692 11.2796 13.499 11.499 13.8897 11.8896L18.6667 16.6667M16.5834 14.5833L18.2355 12.9312C18.6262 12.5407 19.156 12.3213 19.7084 12.3213C20.2608 12.3213 20.7906 12.5407 21.1813 12.9312L22.8334 14.5833M16.5834 8.33332H16.5938M8.25008 20.8333H20.7501C21.3026 20.8333 21.8325 20.6138 22.2232 20.2231C22.6139 19.8324 22.8334 19.3025 22.8334 18.75V6.24999C22.8334 5.69746 22.6139 5.16755 22.2232 4.77685C21.8325 4.38615 21.3026 4.16666 20.7501 4.16666H8.25008C7.69755 4.16666 7.16764 4.38615 6.77694 4.77685C6.38624 5.16755 6.16675 5.69746 6.16675 6.24999V18.75C6.16675 19.3025 6.38624 19.8324 6.77694 20.2231C7.16764 20.6138 7.69755 20.8333 8.25008 20.8333Z" stroke="black" stroke-width="2" stroke-linecap="round" stroke-linejoin="round"/>
<path d="M5.84961 34.9316C5.47526 35.0293 4.98047 35.0781 4.36523 35.0781C3.75326 35.0781 3.22754 35.0016 2.78809 34.8486C2.35189 34.6956 1.97591 34.4694 1.66016 34.1699C0.983073 33.5384 0.644531 32.6595 0.644531 31.5332C0.644531 30.7975 0.820312 30.1628 1.17188 29.6289C1.64714 28.903 2.37793 28.4408 3.36426 28.2422C3.66699 28.1836 4.03809 28.1543 4.47754 28.1543C4.91699 28.1543 5.29622 28.1755 5.61523 28.2178V29.1553C5.33529 29.0837 4.9349 29.0479 4.41406 29.0479C3.89648 29.0479 3.47168 29.1064 3.13965 29.2236C2.80762 29.3408 2.53255 29.5085 2.31445 29.7266C1.87826 30.153 1.66016 30.7552 1.66016 31.5332C1.66016 32.3242 1.875 32.9574 2.30469 33.4326C2.77344 33.9502 3.44238 34.209 4.31152 34.209C4.51335 34.209 4.70052 34.2008 4.87305 34.1846V31.6797H5.84961V34.9316ZM7.65137 34.1016C7.54395 33.916 7.45768 33.6979 7.39258 33.4473C7.33073 33.1966 7.2998 32.8695 7.2998 32.4658C7.2998 32.0622 7.38607 31.6911 7.55859 31.3525C7.73438 31.0107 7.96224 30.7308 8.24219 30.5127C8.78581 30.0928 9.46126 29.8828 10.2686 29.8828C10.6885 29.8828 11.0059 29.8926 11.2207 29.9121C11.2207 29.9121 11.3786 29.9284 11.6943 29.9609V35H10.8154L10.7764 34.4189C10.5811 34.6794 10.2832 34.873 9.88281 35C9.72982 35.0488 9.57194 35.0732 9.40918 35.0732C9.24967 35.0732 9.0918 35.057 8.93555 35.0244C8.7793 34.9919 8.62305 34.9382 8.4668 34.8633C8.3138 34.7884 8.16732 34.6891 8.02734 34.5654C7.88737 34.4385 7.76204 34.2839 7.65137 34.1016ZM10.7178 30.6787C10.5094 30.6527 10.3011 30.6396 10.0928 30.6396C9.8877 30.6396 9.66797 30.6771 9.43359 30.752C9.19922 30.8236 8.99902 30.9375 8.83301 31.0938C8.48796 31.4193 8.31543 31.9157 8.31543 32.583C8.31543 33.2145 8.46354 33.6816 8.75977 33.9844C8.98438 34.209 9.25456 34.3213 9.57031 34.3213C9.97721 34.3213 10.3125 34.1732 10.5762 33.877C10.6413 33.8021 10.6885 33.7354 10.7178 33.6768V30.6787ZM13.4668 27.7344H14.4434V33.0908C14.4434 33.7354 14.5898 34.1146 14.8828 34.2285C14.9805 34.2676 15.0846 34.2871 15.1953 34.2871C15.306 34.2871 15.4053 34.2741 15.4932 34.248V35L15.3125 35.0195C15.2539 35.026 15.1969 35.0293 15.1416 35.0293C14.5166 35.0293 14.0658 34.8242 13.7891 34.4141C13.5742 34.0918 13.4668 33.6523 13.4668 33.0957V27.7344ZM18.9502 35.0781C17.1077 35.0781 16.1865 34.1781 16.1865 32.3779C16.1865 31.6032 16.4421 30.9831 16.9531 30.5176C17.4121 30.0944 17.9362 29.8828 18.5254 29.8828C19.1667 29.8828 19.668 30.0977 20.0293 30.5273C20.3646 30.9277 20.5322 31.4632 20.5322 32.1338V32.5146H17.2021C17.2021 33.4359 17.5781 33.999 18.3301 34.2041C18.5091 34.2529 18.7842 34.2773 19.1553 34.2773C19.5296 34.2773 19.8958 34.2269 20.2539 34.126V34.9512C19.8958 35.0358 19.4613 35.0781 18.9502 35.0781ZM19.5557 31.7969C19.5557 31.4844 19.4694 31.2207 19.2969 31.0059C19.0951 30.7585 18.8167 30.6348 18.4619 30.6348C18.0876 30.6348 17.7832 30.7536 17.5488 30.9912C17.334 31.2126 17.2266 31.4811 17.2266 31.7969H19.5557ZM24.8096 30.8545C24.6305 30.8024 24.4157 30.7764 24.165 30.7764C23.9176 30.7764 23.7142 30.8024 23.5547 30.8545C23.3952 30.9033 23.2552 30.9635 23.1348 31.0352C22.9134 31.1654 22.7523 31.3118 22.6514 31.4746V35H21.6748V29.9609H22.6123L22.6514 30.6592C22.8955 30.3532 23.252 30.1237 23.7207 29.9707C23.89 29.9121 24.0837 29.8828 24.3018 29.8828C24.5199 29.8828 24.6891 29.8991 24.8096 29.9316V30.8545ZM26.9141 28.4961C26.9141 28.6816 26.8522 28.8249 26.7285 28.9258C26.6081 29.0234 26.4567 29.0723 26.2744 29.0723C26.0921 29.0723 25.9408 29.0234 25.8203 28.9258C25.7031 28.8249 25.6445 28.6816 25.6445 28.4961C25.6445 28.3073 25.7031 28.1641 25.8203 28.0664C25.9408 27.9688 26.0921 27.9199 26.2744 27.9199C26.4567 27.9199 26.6081 27.9688 26.7285 28.0664C26.8522 28.1641 26.9141 28.3073 26.9141 28.4961ZM25.7715 29.9609H26.748V35H25.7715V29.9609Z" />
</svg>
