<svg width="28" height="29" viewBox="0 0 28 29" fill="none" xmlns="http://www.w3.org/2000/svg">
<path d="M5.84961 27.9316C5.47526 28.0293 4.98047 28.0781 4.36523 28.0781C3.75326 28.0781 3.22754 28.0016 2.78809 27.8486C2.35189 27.6956 1.97591 27.4694 1.66016 27.1699C0.983073 26.5384 0.644531 25.6595 0.644531 24.5332C0.644531 23.7975 0.820312 23.1628 1.17188 22.6289C1.64714 21.903 2.37793 21.4408 3.36426 21.2422C3.66699 21.1836 4.03809 21.1543 4.47754 21.1543C4.91699 21.1543 5.29622 21.1755 5.61523 21.2178V22.1553C5.33529 22.0837 4.9349 22.0479 4.41406 22.0479C3.89648 22.0479 3.47168 22.1064 3.13965 22.2236C2.80762 22.3408 2.53255 22.5085 2.31445 22.7266C1.87826 23.153 1.66016 23.7552 1.66016 24.5332C1.66016 25.3242 1.875 25.9574 2.30469 26.4326C2.77344 26.9502 3.44238 27.209 4.31152 27.209C4.51335 27.209 4.70052 27.2008 4.87305 27.1846V24.6797H5.84961V27.9316ZM7.65137 27.1016C7.54395 26.916 7.45768 26.6979 7.39258 26.4473C7.33073 26.1966 7.2998 25.8695 7.2998 25.4658C7.2998 25.0622 7.38607 24.6911 7.55859 24.3525C7.73438 24.0107 7.96224 23.7308 8.24219 23.5127C8.78581 23.0928 9.46126 22.8828 10.2686 22.8828C10.6885 22.8828 11.0059 22.8926 11.2207 22.9121C11.2207 22.9121 11.3786 22.9284 11.6943 22.9609V28H10.8154L10.7764 27.4189C10.5811 27.6794 10.2832 27.873 9.88281 28C9.72982 28.0488 9.57194 28.0732 9.40918 28.0732C9.24967 28.0732 9.0918 28.057 8.93555 28.0244C8.7793 27.9919 8.62305 27.9382 8.4668 27.8633C8.3138 27.7884 8.16732 27.6891 8.02734 27.5654C7.88737 27.4385 7.76204 27.2839 7.65137 27.1016ZM10.7178 23.6787C10.5094 23.6527 10.3011 23.6396 10.0928 23.6396C9.8877 23.6396 9.66797 23.6771 9.43359 23.752C9.19922 23.8236 8.99902 23.9375 8.83301 24.0938C8.48796 24.4193 8.31543 24.9157 8.31543 25.583C8.31543 26.2145 8.46354 26.6816 8.75977 26.9844C8.98438 27.209 9.25456 27.3213 9.57031 27.3213C9.97721 27.3213 10.3125 27.1732 10.5762 26.877C10.6413 26.8021 10.6885 26.7354 10.7178 26.6768V23.6787ZM13.4668 20.7344H14.4434V26.0908C14.4434 26.7354 14.5898 27.1146 14.8828 27.2285C14.9805 27.2676 15.0846 27.2871 15.1953 27.2871C15.306 27.2871 15.4053 27.2741 15.4932 27.248V28L15.3125 28.0195C15.2539 28.026 15.1969 28.0293 15.1416 28.0293C14.5166 28.0293 14.0658 27.8242 13.7891 27.4141C13.5742 27.0918 13.4668 26.6523 13.4668 26.0957V20.7344ZM18.9502 28.0781C17.1077 28.0781 16.1865 27.1781 16.1865 25.3779C16.1865 24.6032 16.4421 23.9831 16.9531 23.5176C17.4121 23.0944 17.9362 22.8828 18.5254 22.8828C19.1667 22.8828 19.668 23.0977 20.0293 23.5273C20.3646 23.9277 20.5322 24.4632 20.5322 25.1338V25.5146H17.2021C17.2021 26.4359 17.5781 26.999 18.3301 27.2041C18.5091 27.2529 18.7842 27.2773 19.1553 27.2773C19.5296 27.2773 19.8958 27.2269 20.2539 27.126V27.9512C19.8958 28.0358 19.4613 28.0781 18.9502 28.0781ZM19.5557 24.7969C19.5557 24.4844 19.4694 24.2207 19.2969 24.0059C19.0951 23.7585 18.8167 23.6348 18.4619 23.6348C18.0876 23.6348 17.7832 23.7536 17.5488 23.9912C17.334 24.2126 17.2266 24.4811 17.2266 24.7969H19.5557ZM24.8096 23.8545C24.6305 23.8024 24.4157 23.7764 24.165 23.7764C23.9176 23.7764 23.7142 23.8024 23.5547 23.8545C23.3952 23.9033 23.2552 23.9635 23.1348 24.0352C22.9134 24.1654 22.7523 24.3118 22.6514 24.4746V28H21.6748V22.9609H22.6123L22.6514 23.6592C22.8955 23.3532 23.252 23.1237 23.7207 22.9707C23.89 22.9121 24.0837 22.8828 24.3018 22.8828C24.5199 22.8828 24.6891 22.8991 24.8096 22.9316V23.8545ZM26.9141 21.4961C26.9141 21.6816 26.8522 21.8249 26.7285 21.9258C26.6081 22.0234 26.4567 22.0723 26.2744 22.0723C26.0921 22.0723 25.9408 22.0234 25.8203 21.9258C25.7031 21.8249 25.6445 21.6816 25.6445 21.4961C25.6445 21.3073 25.7031 21.1641 25.8203 21.0664C25.9408 20.9688 26.0921 20.9199 26.2744 20.9199C26.4567 20.9199 26.6081 20.9688 26.7285 21.0664C26.8522 21.1641 26.9141 21.3073 26.9141 21.4961ZM25.7715 22.9609H26.748V28H25.7715V22.9609Z" fill="black"/>
<path d="M5 13.5L9.77708 8.72292C10.1678 8.33235 10.6976 8.11294 11.25 8.11294C11.8024 8.11294 12.3322 8.33235 12.7229 8.72292L17.5 13.5M15.4167 11.4167L17.0688 9.76458C17.4594 9.37402 17.9892 9.15461 18.5417 9.15461C19.0941 9.15461 19.6239 9.37402 20.0146 9.76458L21.6667 11.4167M15.4167 5.16667H15.4271M7.08333 17.6667H19.5833C20.1359 17.6667 20.6658 17.4472 21.0565 17.0565C21.4472 16.6658 21.6667 16.1359 21.6667 15.5833V3.08333C21.6667 2.5308 21.4472 2.00089 21.0565 1.61019C20.6658 1.21949 20.1359 1 19.5833 1H7.08333C6.5308 1 6.00089 1.21949 5.61019 1.61019C5.21949 2.00089 5 2.5308 5 3.08333V15.5833C5 16.1359 5.21949 16.6658 5.61019 17.0565C6.00089 17.4472 6.5308 17.6667 7.08333 17.6667Z" stroke="black" stroke-width="2" stroke-linecap="round" stroke-linejoin="round"/>
</svg>
