<svg width="38" height="33" viewBox="0 0 38 33" fill="none" xmlns="http://www.w3.org/2000/svg">
<path d="M0.429688 27.4707C0.429688 26.6797 0.681966 26.0384 1.18652 25.5469C1.65853 25.0879 2.24284 24.8584 2.93945 24.8584C3.62305 24.8584 4.19434 25.0879 4.65332 25.5469C5.1416 26.0352 5.38574 26.6764 5.38574 27.4707C5.38574 28.2617 5.13997 28.8997 4.64844 29.3848C4.18294 29.847 3.61165 30.0781 2.93457 30.0781C2.24772 30.0781 1.66504 29.847 1.18652 29.3848C0.681966 28.8997 0.429688 28.2617 0.429688 27.4707ZM1.44531 27.4707C1.44531 28.304 1.71224 28.8704 2.24609 29.1699C2.4349 29.2741 2.66113 29.3262 2.9248 29.3262C3.18848 29.3262 3.41146 29.2741 3.59375 29.1699C3.77604 29.0625 3.92578 28.9225 4.04297 28.75C4.26107 28.418 4.37012 27.9915 4.37012 27.4707C4.37012 26.6439 4.10807 26.0775 3.58398 25.7715C3.40169 25.6641 3.18359 25.6104 2.92969 25.6104C2.67578 25.6104 2.45443 25.6641 2.26562 25.7715C2.08008 25.8757 1.92708 26.014 1.80664 26.1865C1.56576 26.5251 1.44531 26.9531 1.44531 27.4707ZM7.63672 31.9531H6.66016V24.9609H7.53906L7.57812 25.5371C7.77344 25.2767 8.07292 25.083 8.47656 24.9561C8.63281 24.9072 8.79069 24.8828 8.9502 24.8828C9.11296 24.8828 9.27246 24.9007 9.42871 24.9365C9.58496 24.9691 9.73958 25.0244 9.89258 25.1025C10.0456 25.1774 10.1921 25.2783 10.332 25.4053C10.472 25.529 10.5957 25.6836 10.7031 25.8691C10.9375 26.2695 11.0547 26.766 11.0547 27.3584C11.0547 28.2633 10.7422 28.9551 10.1172 29.4336C9.5638 29.86 8.88997 30.0732 8.0957 30.0732H7.85156C7.77344 30.0732 7.70182 30.0716 7.63672 30.0684V31.9531ZM7.63672 29.2773C7.72786 29.3034 7.9069 29.3164 8.17383 29.3164C8.44076 29.3164 8.69141 29.279 8.92578 29.2041C9.16016 29.1292 9.35872 29.0137 9.52148 28.8574C9.86654 28.5254 10.0391 28.0257 10.0391 27.3584C10.0391 26.7301 9.88932 26.2663 9.58984 25.9668C9.36849 25.7454 9.09831 25.6348 8.7793 25.6348C8.37891 25.6348 8.04688 25.7829 7.7832 26.0791C7.71484 26.154 7.66602 26.2207 7.63672 26.2793V29.2773ZM14.7803 30.0781C12.9378 30.0781 12.0166 29.1781 12.0166 27.3779C12.0166 26.6032 12.2721 25.9831 12.7832 25.5176C13.2422 25.0944 13.7663 24.8828 14.3555 24.8828C14.9967 24.8828 15.498 25.0977 15.8594 25.5273C16.1947 25.9277 16.3623 26.4632 16.3623 27.1338V27.5146H13.0322C13.0322 28.4359 13.4082 28.999 14.1602 29.2041C14.3392 29.2529 14.6143 29.2773 14.9854 29.2773C15.3597 29.2773 15.7259 29.2269 16.084 29.126V29.9512C15.7259 30.0358 15.2913 30.0781 14.7803 30.0781ZM15.3857 26.7969C15.3857 26.4844 15.2995 26.2207 15.127 26.0059C14.9251 25.7585 14.6468 25.6348 14.292 25.6348C13.9176 25.6348 13.6133 25.7536 13.3789 25.9912C13.1641 26.2126 13.0566 26.4811 13.0566 26.7969H15.3857ZM19.707 25.7227C19.222 25.7227 18.7907 25.887 18.4131 26.2158V30H17.4365V24.9609H18.3398L18.4082 25.5078C18.9388 25.0911 19.4873 24.8828 20.0537 24.8828C20.6527 24.8828 21.0921 25.0618 21.3721 25.4199C21.665 25.7975 21.8115 26.4062 21.8115 27.2461V30H20.835V27.2461C20.835 26.4388 20.6169 25.957 20.1807 25.8008C20.0407 25.7487 19.8828 25.7227 19.707 25.7227ZM24.4141 23.4961C24.4141 23.6816 24.3522 23.8249 24.2285 23.9258C24.1081 24.0234 23.9567 24.0723 23.7744 24.0723C23.5921 24.0723 23.4408 24.0234 23.3203 23.9258C23.2031 23.8249 23.1445 23.6816 23.1445 23.4961C23.1445 23.3073 23.2031 23.1641 23.3203 23.0664C23.4408 22.9688 23.5921 22.9199 23.7744 22.9199C23.9567 22.9199 24.1081 22.9688 24.2285 23.0664C24.3522 23.1641 24.4141 23.3073 24.4141 23.4961ZM23.2715 24.9609H24.248V30H23.2715V24.9609ZM28.0566 25.7227C27.5716 25.7227 27.1403 25.887 26.7627 26.2158V30H25.7861V24.9609H26.6895L26.7578 25.5078C27.2884 25.0911 27.8369 24.8828 28.4033 24.8828C29.0023 24.8828 29.4417 25.0618 29.7217 25.4199C30.0146 25.7975 30.1611 26.4062 30.1611 27.2461V30H29.1846V27.2461C29.1846 26.4388 28.9665 25.957 28.5303 25.8008C28.3903 25.7487 28.2324 25.7227 28.0566 25.7227ZM34.4922 31.9238C34.209 31.9954 33.8444 32.0312 33.3984 32.0312C32.9557 32.0312 32.6318 31.9987 32.4268 31.9336V31.0645C32.6839 31.1751 32.998 31.2305 33.3691 31.2305C33.7435 31.2337 34.0186 31.2093 34.1943 31.1572C34.3701 31.1051 34.5085 31.0205 34.6094 30.9033C34.7917 30.6917 34.8828 30.3092 34.8828 29.7559V29.4971C34.6354 29.7445 34.3099 29.917 33.9062 30.0146C33.7435 30.0537 33.5807 30.0732 33.418 30.0732C33.2552 30.0732 33.0957 30.0553 32.9395 30.0195C32.7865 29.9837 32.6335 29.9268 32.4805 29.8486C32.3275 29.7673 32.181 29.6631 32.041 29.5361C31.901 29.4059 31.7773 29.2448 31.6699 29.0527C31.429 28.6361 31.3086 28.1234 31.3086 27.5146C31.3021 26.9515 31.4648 26.4567 31.7969 26.0303C32.0833 25.6592 32.4772 25.3711 32.9785 25.166C33.4342 24.9772 33.9274 24.8828 34.458 24.8828C34.9886 24.8828 35.4557 24.9089 35.8594 24.9609V29.7559C35.8594 30.9733 35.4036 31.696 34.4922 31.9238ZM34.8828 25.6738C34.6745 25.6478 34.4694 25.6348 34.2676 25.6348C34.0658 25.6348 33.8395 25.6722 33.5889 25.7471C33.3382 25.8219 33.1185 25.9359 32.9297 26.0889C32.5163 26.4242 32.3096 26.8994 32.3096 27.5146C32.3096 28.182 32.4707 28.6686 32.793 28.9746C33.0339 29.2057 33.3285 29.3213 33.6768 29.3213C34.0967 29.3213 34.4499 29.1732 34.7363 28.877C34.8047 28.8021 34.8535 28.7354 34.8828 28.6768V25.6738Z" fill="black"/>
<path d="M19.8684 0.365983C19.634 0.131644 19.3161 0 18.9846 0C18.6532 0 18.3353 0.131644 18.1009 0.365983L9.35089 9.11598C9.12319 9.35174 8.9972 9.66749 9.00005 9.99523C9.0029 10.323 9.13436 10.6365 9.36612 10.8683C9.59788 11.1 9.91139 11.2315 10.2391 11.2343C10.5669 11.2372 10.8826 11.1112 11.1184 10.8835L11.4846 10.5172V18.7497C11.4846 19.0813 11.6163 19.3992 11.8508 19.6336C12.0852 19.868 12.4031 19.9997 12.7346 19.9997H15.2346C15.5662 19.9997 15.8841 19.868 16.1185 19.6336C16.3529 19.3992 16.4846 19.0813 16.4846 18.7497V16.2497C16.4846 15.9182 16.6163 15.6003 16.8508 15.3658C17.0852 15.1314 17.4031 14.9997 17.7346 14.9997H20.2346C20.5662 14.9997 20.8841 15.1314 21.1185 15.3658C21.3529 15.6003 21.4846 15.9182 21.4846 16.2497V18.7497C21.4846 19.0813 21.6163 19.3992 21.8508 19.6336C22.0852 19.868 22.4031 19.9997 22.7346 19.9997H25.2346C25.5662 19.9997 25.8841 19.868 26.1185 19.6336C26.3529 19.3992 26.4846 19.0813 26.4846 18.7497V10.5172L26.8509 10.8835C27.0866 11.1112 27.4024 11.2372 27.7301 11.2343C28.0579 11.2315 28.3714 11.1 28.6032 10.8683C28.8349 10.6365 28.9664 10.323 28.9692 9.99523C28.9721 9.66749 28.8461 9.35174 28.6184 9.11598L19.8684 0.365983Z" fill="black"/>
</svg>
