<svg width="26" height="37" viewBox="0 0 26 37" fill="none" xmlns="http://www.w3.org/2000/svg">
<path d="M0.708008 28.2031H1.33301L3.75488 30.9863L6.16699 28.2031H6.79199V35H5.81543V29.8242L5.52734 30.2148L3.75488 32.2803L1.98242 30.2197L1.68457 29.8291V35H0.708008V28.2031ZM8.48145 34.1016C8.37402 33.916 8.28776 33.6979 8.22266 33.4473C8.16081 33.1966 8.12988 32.8695 8.12988 32.4658C8.12988 32.0622 8.21615 31.6911 8.38867 31.3525C8.56445 31.0107 8.79232 30.7308 9.07227 30.5127C9.61589 30.0928 10.2913 29.8828 11.0986 29.8828C11.5186 29.8828 11.8359 29.8926 12.0508 29.9121C12.0508 29.9121 12.2087 29.9284 12.5244 29.9609V35H11.6455L11.6064 34.4189C11.4111 34.6794 11.1133 34.873 10.7129 35C10.5599 35.0488 10.402 35.0732 10.2393 35.0732C10.0798 35.0732 9.92188 35.057 9.76562 35.0244C9.60938 34.9919 9.45312 34.9382 9.29688 34.8633C9.14388 34.7884 8.9974 34.6891 8.85742 34.5654C8.71745 34.4385 8.59212 34.2839 8.48145 34.1016ZM11.5479 30.6787C11.3395 30.6527 11.1312 30.6396 10.9229 30.6396C10.7178 30.6396 10.498 30.6771 10.2637 30.752C10.0293 30.8236 9.8291 30.9375 9.66309 31.0938C9.31803 31.4193 9.14551 31.9157 9.14551 32.583C9.14551 33.2145 9.29362 33.6816 9.58984 33.9844C9.81445 34.209 10.0846 34.3213 10.4004 34.3213C10.8073 34.3213 11.1426 34.1732 11.4062 33.877C11.4714 33.8021 11.5186 33.7354 11.5479 33.6768V30.6787ZM15.1367 36.9531H14.1602V29.9609H15.0391L15.0781 30.5371C15.2734 30.2767 15.5729 30.083 15.9766 29.9561C16.1328 29.9072 16.2907 29.8828 16.4502 29.8828C16.613 29.8828 16.7725 29.9007 16.9287 29.9365C17.085 29.9691 17.2396 30.0244 17.3926 30.1025C17.5456 30.1774 17.6921 30.2783 17.832 30.4053C17.972 30.529 18.0957 30.6836 18.2031 30.8691C18.4375 31.2695 18.5547 31.766 18.5547 32.3584C18.5547 33.2633 18.2422 33.9551 17.6172 34.4336C17.0638 34.86 16.39 35.0732 15.5957 35.0732H15.3516C15.2734 35.0732 15.2018 35.0716 15.1367 35.0684V36.9531ZM15.1367 34.2773C15.2279 34.3034 15.4069 34.3164 15.6738 34.3164C15.9408 34.3164 16.1914 34.279 16.4258 34.2041C16.6602 34.1292 16.8587 34.0137 17.0215 33.8574C17.3665 33.5254 17.5391 33.0257 17.5391 32.3584C17.5391 31.7301 17.3893 31.2663 17.0898 30.9668C16.8685 30.7454 16.5983 30.6348 16.2793 30.6348C15.8789 30.6348 15.5469 30.7829 15.2832 31.0791C15.2148 31.154 15.166 31.2207 15.1367 31.2793V34.2773ZM21.1621 35.0781C20.7552 35.0781 20.3434 35.0488 19.9268 34.9902V34.126C20.3499 34.2269 20.7796 34.2773 21.2158 34.2773C22.0882 34.2773 22.5244 34.0934 22.5244 33.7256C22.5244 33.5856 22.4902 33.4814 22.4219 33.4131C22.321 33.3057 22.1615 33.1982 21.9434 33.0908L21.2305 32.7637C20.7682 32.5326 20.4688 32.347 20.332 32.207C20.0749 31.9466 19.9463 31.6374 19.9463 31.2793C19.9463 30.8757 20.1335 30.5469 20.5078 30.293C20.9115 30.0195 21.4779 29.8828 22.207 29.8828C22.5749 29.8828 22.946 29.9089 23.3203 29.9609V30.7959C22.9102 30.721 22.5521 30.6836 22.2461 30.6836C21.9434 30.6836 21.7074 30.7031 21.5381 30.7422C21.3721 30.7812 21.2467 30.8301 21.1621 30.8887C21.0286 30.9798 20.9619 31.0986 20.9619 31.2451C20.9619 31.3883 21.0075 31.5055 21.0986 31.5967C21.193 31.6846 21.3395 31.7806 21.5381 31.8848L22.2559 32.2314C22.7246 32.4756 23.0257 32.6628 23.1592 32.793C23.4131 33.0404 23.54 33.3512 23.54 33.7256C23.54 34.126 23.3382 34.4482 22.9346 34.6924C22.5114 34.9495 21.9206 35.0781 21.1621 35.0781Z" fill="black"/>
<path d="M19.3928 17.351L14.973 21.7708C14.7797 21.9643 14.5502 22.1178 14.2975 22.2225C14.0449 22.3272 13.7741 22.3811 13.5006 22.3811C13.2271 22.3811 12.9563 22.3272 12.7037 22.2225C12.451 22.1178 12.2215 21.9643 12.0282 21.7708L7.60738 17.351C6.44198 16.1856 5.64835 14.7007 5.32684 13.0842C5.00533 11.4677 5.17039 9.7922 5.80113 8.26951C6.43187 6.74682 7.49998 5.44535 8.87038 4.5297C10.2408 3.61404 11.8519 3.12531 13.5001 3.12531C15.1482 3.12531 16.7594 3.61404 18.1298 4.5297C19.5002 5.44535 20.5683 6.74682 21.199 8.26951C21.8298 9.7922 21.9948 11.4677 21.6733 13.0842C21.3518 14.7007 20.5582 16.1856 19.3928 17.351Z" stroke="black" stroke-width="2" stroke-linecap="round" stroke-linejoin="round"/>
<path d="M16.625 11.4583C16.625 12.2871 16.2958 13.082 15.7097 13.6681C15.1237 14.2541 14.3288 14.5833 13.5 14.5833C12.6712 14.5833 11.8763 14.2541 11.2903 13.6681C10.7042 13.082 10.375 12.2871 10.375 11.4583C10.375 10.6295 10.7042 9.83469 11.2903 9.24863C11.8763 8.66258 12.6712 8.33334 13.5 8.33334C14.3288 8.33334 15.1237 8.66258 15.7097 9.24863C16.2958 9.83469 16.625 10.6295 16.625 11.4583Z" stroke="black" stroke-width="2" stroke-linecap="round" stroke-linejoin="round"/>
</svg>
