<svg width="45" height="29" viewBox="0 0 45 29" fill="none" xmlns="http://www.w3.org/2000/svg">
<path d="M0.708008 20.2031H1.33301L3.75488 22.9863L6.16699 20.2031H6.79199V27H5.81543V21.8242L5.52734 22.2148L3.75488 24.2803L1.98242 22.2197L1.68457 21.8291V27H0.708008V20.2031ZM10.6104 27.0781C8.7679 27.0781 7.84668 26.1781 7.84668 24.3779C7.84668 23.6032 8.10221 22.9831 8.61328 22.5176C9.07227 22.0944 9.59635 21.8828 10.1855 21.8828C10.8268 21.8828 11.3281 22.0977 11.6895 22.5273C12.0247 22.9277 12.1924 23.4632 12.1924 24.1338V24.5146H8.8623C8.8623 25.4359 9.23828 25.999 9.99023 26.2041C10.1693 26.2529 10.4443 26.2773 10.8154 26.2773C11.1898 26.2773 11.556 26.2269 11.9141 26.126V26.9512C11.556 27.0358 11.1214 27.0781 10.6104 27.0781ZM11.2158 23.7969C11.2158 23.4844 11.1296 23.2207 10.957 23.0059C10.7552 22.7585 10.4769 22.6348 10.1221 22.6348C9.74772 22.6348 9.44336 22.7536 9.20898 22.9912C8.99414 23.2126 8.88672 23.4811 8.88672 23.7969H11.2158ZM14.2627 23.2158L14.2676 27H13.291V21.9609H14.1895L14.2578 22.5127C14.6159 22.2132 15.0326 22.0179 15.5078 21.9268C15.6608 21.8975 15.8105 21.8828 15.957 21.8828C16.5658 21.8828 17.0247 22.14 17.334 22.6543C17.9004 22.14 18.4928 21.8828 19.1113 21.8828C19.7233 21.8828 20.1693 22.0667 20.4492 22.4346C20.7292 22.8089 20.8691 23.4274 20.8691 24.29V27H19.8926V24.3242C19.8926 23.4779 19.6891 22.9717 19.2822 22.8057C19.1455 22.7503 18.986 22.7227 18.8037 22.7227C18.3675 22.7227 17.9671 22.8789 17.6025 23.1914V27H16.626V24.2852C16.626 23.7057 16.5397 23.2988 16.3672 23.0645C16.2012 22.8366 15.9033 22.7227 15.4736 22.7227C15.0472 22.7227 14.6436 22.887 14.2627 23.2158ZM23.4863 28.9531H22.5098V21.9609H23.3887L23.4277 22.5371C23.623 22.2767 23.9225 22.083 24.3262 21.9561C24.4824 21.9072 24.6403 21.8828 24.7998 21.8828C24.9626 21.8828 25.1221 21.9007 25.2783 21.9365C25.4346 21.9691 25.5892 22.0244 25.7422 22.1025C25.8952 22.1774 26.0417 22.2783 26.1816 22.4053C26.3216 22.529 26.4453 22.6836 26.5527 22.8691C26.7871 23.2695 26.9043 23.766 26.9043 24.3584C26.9043 25.2633 26.5918 25.9551 25.9668 26.4336C25.4134 26.86 24.7396 27.0732 23.9453 27.0732H23.7012C23.623 27.0732 23.5514 27.0716 23.4863 27.0684V28.9531ZM23.4863 26.2773C23.5775 26.3034 23.7565 26.3164 24.0234 26.3164C24.2904 26.3164 24.541 26.279 24.7754 26.2041C25.0098 26.1292 25.2083 26.0137 25.3711 25.8574C25.7161 25.5254 25.8887 25.0257 25.8887 24.3584C25.8887 23.7301 25.7389 23.2663 25.4395 22.9668C25.2181 22.7454 24.9479 22.6348 24.6289 22.6348C24.2285 22.6348 23.8965 22.7829 23.6328 23.0791C23.5645 23.154 23.5156 23.2207 23.4863 23.2793V26.2773ZM30.6299 27.0781C28.7874 27.0781 27.8662 26.1781 27.8662 24.3779C27.8662 23.6032 28.1217 22.9831 28.6328 22.5176C29.0918 22.0944 29.6159 21.8828 30.2051 21.8828C30.8464 21.8828 31.3477 22.0977 31.709 22.5273C32.0443 22.9277 32.2119 23.4632 32.2119 24.1338V24.5146H28.8818C28.8818 25.4359 29.2578 25.999 30.0098 26.2041C30.1888 26.2529 30.4639 26.2773 30.835 26.2773C31.2093 26.2773 31.5755 26.2269 31.9336 26.126V26.9512C31.5755 27.0358 31.141 27.0781 30.6299 27.0781ZM31.2354 23.7969C31.2354 23.4844 31.1491 23.2207 30.9766 23.0059C30.7747 22.7585 30.4964 22.6348 30.1416 22.6348C29.7673 22.6348 29.4629 22.7536 29.2285 22.9912C29.0137 23.2126 28.9062 23.4811 28.9062 23.7969H31.2354ZM33.4961 19.7344H34.4727V25.0908C34.4727 25.7354 34.6191 26.1146 34.9121 26.2285C35.0098 26.2676 35.1139 26.2871 35.2246 26.2871C35.3353 26.2871 35.4346 26.2741 35.5225 26.248V27L35.3418 27.0195C35.2832 27.026 35.2262 27.0293 35.1709 27.0293C34.5459 27.0293 34.0951 26.8242 33.8184 26.4141C33.6035 26.0918 33.4961 25.6523 33.4961 25.0957V19.7344ZM36.8506 26.1016C36.7432 25.916 36.6569 25.6979 36.5918 25.4473C36.5299 25.1966 36.499 24.8695 36.499 24.4658C36.499 24.0622 36.5853 23.6911 36.7578 23.3525C36.9336 23.0107 37.1615 22.7308 37.4414 22.5127C37.985 22.0928 38.6605 21.8828 39.4678 21.8828C39.8877 21.8828 40.2051 21.8926 40.4199 21.9121C40.4199 21.9121 40.5778 21.9284 40.8936 21.9609V27H40.0146L39.9756 26.4189C39.7803 26.6794 39.4824 26.873 39.082 27C38.929 27.0488 38.7712 27.0732 38.6084 27.0732C38.4489 27.0732 38.291 27.057 38.1348 27.0244C37.9785 26.9919 37.8223 26.9382 37.666 26.8633C37.513 26.7884 37.3665 26.6891 37.2266 26.5654C37.0866 26.4385 36.9613 26.2839 36.8506 26.1016ZM39.917 22.6787C39.7087 22.6527 39.5003 22.6396 39.292 22.6396C39.0869 22.6396 38.8672 22.6771 38.6328 22.752C38.3984 22.8236 38.1982 22.9375 38.0322 23.0938C37.6872 23.4193 37.5146 23.9157 37.5146 24.583C37.5146 25.2145 37.6628 25.6816 37.959 25.9844C38.1836 26.209 38.4538 26.3213 38.7695 26.3213C39.1764 26.3213 39.5117 26.1732 39.7754 25.877C39.8405 25.8021 39.8877 25.7354 39.917 25.6768V22.6787ZM43.5938 20.4961C43.5938 20.6816 43.5319 20.8249 43.4082 20.9258C43.2878 21.0234 43.1364 21.0723 42.9541 21.0723C42.7718 21.0723 42.6204 21.0234 42.5 20.9258C42.3828 20.8249 42.3242 20.6816 42.3242 20.4961C42.3242 20.3073 42.3828 20.1641 42.5 20.0664C42.6204 19.9688 42.7718 19.9199 42.9541 19.9199C43.1364 19.9199 43.2878 19.9688 43.4082 20.0664C43.5319 20.1641 43.5938 20.3073 43.5938 20.4961ZM42.4512 21.9609H43.4277V27H42.4512V21.9609Z" fill="black"/>
<path d="M22 6C22 6.79565 21.6839 7.55871 21.1213 8.12132C20.5587 8.68393 19.7956 9 19 9C18.2044 9 17.4413 8.68393 16.8787 8.12132C16.3161 7.55871 16 6.79565 16 6C16 5.20435 16.3161 4.44129 16.8787 3.87868C17.4413 3.31607 18.2044 3 19 3C19.7956 3 20.5587 3.31607 21.1213 3.87868C21.6839 4.44129 22 5.20435 22 6ZM30 6C30 6.39397 29.9224 6.78407 29.7716 7.14805C29.6209 7.51203 29.3999 7.84274 29.1213 8.12132C28.8427 8.3999 28.512 8.62087 28.1481 8.77164C27.7841 8.9224 27.394 9 27 9C26.606 9 26.2159 8.9224 25.8519 8.77164C25.488 8.62087 25.1573 8.3999 24.8787 8.12132C24.6001 7.84274 24.3791 7.51203 24.2284 7.14805C24.0776 6.78407 24 6.39397 24 6C24 5.20435 24.3161 4.44129 24.8787 3.87868C25.4413 3.31607 26.2044 3 27 3C27.7956 3 28.5587 3.31607 29.1213 3.87868C29.6839 4.44129 30 5.20435 30 6ZM25.93 17C25.976 16.673 26 16.34 26 16C26.0023 14.4289 25.4737 12.903 24.5 11.67C25.2601 11.2312 26.1223 11.0001 27 11.0001C27.8776 11.0001 28.7399 11.2311 29.4999 11.67C30.26 12.1088 30.8912 12.74 31.3301 13.5C31.7689 14.2601 32 15.1223 32 16V17H25.93ZM19 11C20.3261 11 21.5979 11.5268 22.5355 12.4645C23.4732 13.4021 24 14.6739 24 16V17H14V16C14 14.6739 14.5268 13.4021 15.4645 12.4645C16.4021 11.5268 17.6739 11 19 11Z" fill="black"/>
</svg>
