<svg width="40" height="36" viewBox="0 0 40 36" fill="none" xmlns="http://www.w3.org/2000/svg">
<path d="M0.830078 27.2031H2.75879C4.0446 27.2031 4.87305 27.584 5.24414 28.3457C5.3776 28.6257 5.44434 28.9577 5.44434 29.3418C5.44434 29.7259 5.37598 30.0547 5.23926 30.3281C5.10254 30.6016 4.91862 30.8262 4.6875 31.002C4.23828 31.3405 3.6377 31.5098 2.88574 31.5098H1.80664V34H0.830078V27.2031ZM2.69531 30.7285C3.28451 30.7285 3.7207 30.6146 4.00391 30.3867C4.28711 30.1589 4.42871 29.804 4.42871 29.3223C4.42871 28.681 4.13086 28.2676 3.53516 28.082C3.32682 28.0169 3.07454 27.9844 2.77832 27.9844H1.80664V30.7285H2.69531ZM8.9502 34.0781C7.10775 34.0781 6.18652 33.1781 6.18652 31.3779C6.18652 30.6032 6.44206 29.9831 6.95312 29.5176C7.41211 29.0944 7.9362 28.8828 8.52539 28.8828C9.16667 28.8828 9.66797 29.0977 10.0293 29.5273C10.3646 29.9277 10.5322 30.4632 10.5322 31.1338V31.5146H7.20215C7.20215 32.4359 7.57812 32.999 8.33008 33.2041C8.50911 33.2529 8.78418 33.2773 9.15527 33.2773C9.52962 33.2773 9.89583 33.2269 10.2539 33.126V33.9512C9.89583 34.0358 9.46126 34.0781 8.9502 34.0781ZM9.55566 30.7969C9.55566 30.4844 9.4694 30.2207 9.29688 30.0059C9.09505 29.7585 8.81673 29.6348 8.46191 29.6348C8.08757 29.6348 7.7832 29.7536 7.54883 29.9912C7.33398 30.2126 7.22656 30.4811 7.22656 30.7969H9.55566ZM13.877 29.7227C13.3919 29.7227 12.9606 29.887 12.583 30.2158V34H11.6064V28.9609H12.5098L12.5781 29.5078C13.1087 29.0911 13.6572 28.8828 14.2236 28.8828C14.8226 28.8828 15.262 29.0618 15.542 29.4199C15.835 29.7975 15.9814 30.4062 15.9814 31.2461V34H15.0049V31.2461C15.0049 30.4388 14.7868 29.957 14.3506 29.8008C14.2106 29.7487 14.0527 29.7227 13.877 29.7227ZM20.7324 32.7646V28.9609H21.709V34H20.8301L20.7422 33.4678C20.2604 33.8747 19.7282 34.0781 19.1455 34.0781C18.527 34.0781 18.0892 33.9072 17.832 33.5654C17.5651 33.2171 17.4316 32.6165 17.4316 31.7637V28.9609H18.4082V31.7148C18.4082 32.3171 18.4945 32.7272 18.667 32.9453C18.82 33.1406 19.1113 33.2383 19.541 33.2383C19.974 33.2383 20.3711 33.0804 20.7324 32.7646ZM25.0977 33.2285C25.2051 33.2676 25.3678 33.2871 25.5859 33.2871C25.804 33.2871 25.9863 33.2611 26.1328 33.209V33.9902C26.0645 34.0065 25.9652 34.0163 25.835 34.0195L25.5273 34.0293C25.459 34.0293 25.4069 34.0293 25.3711 34.0293C24.7428 34.0293 24.279 33.8242 23.9795 33.4141C23.7386 33.082 23.6182 32.6426 23.6182 32.0957V29.708H22.8955V29.249L23.6182 28.9609L23.8525 27.7109H24.5947V28.9609H26.1572V29.708H24.5947V32.0908C24.5947 32.7288 24.7624 33.1081 25.0977 33.2285ZM30.7422 32.7646V28.9609H31.7188V34H30.8398L30.752 33.4678C30.2702 33.8747 29.738 34.0781 29.1553 34.0781C28.5368 34.0781 28.099 33.9072 27.8418 33.5654C27.5749 33.2171 27.4414 32.6165 27.4414 31.7637V28.9609H28.418V31.7148C28.418 32.3171 28.5042 32.7272 28.6768 32.9453C28.8298 33.1406 29.1211 33.2383 29.5508 33.2383C29.9837 33.2383 30.3809 33.0804 30.7422 32.7646ZM34.3457 35.9531H33.3691V28.9609H34.248L34.2871 29.5371C34.4824 29.2767 34.7819 29.083 35.1855 28.9561C35.3418 28.9072 35.4997 28.8828 35.6592 28.8828C35.8219 28.8828 35.9814 28.9007 36.1377 28.9365C36.2939 28.9691 36.4486 29.0244 36.6016 29.1025C36.7546 29.1774 36.901 29.2783 37.041 29.4053C37.181 29.529 37.3047 29.6836 37.4121 29.8691C37.6465 30.2695 37.7637 30.766 37.7637 31.3584C37.7637 32.2633 37.4512 32.9551 36.8262 33.4336C36.2728 33.86 35.599 34.0732 34.8047 34.0732H34.5605C34.4824 34.0732 34.4108 34.0716 34.3457 34.0684V35.9531ZM34.3457 33.2773C34.4368 33.3034 34.6159 33.3164 34.8828 33.3164C35.1497 33.3164 35.4004 33.279 35.6348 33.2041C35.8691 33.1292 36.0677 33.0137 36.2305 32.8574C36.5755 32.5254 36.748 32.0257 36.748 31.3584C36.748 30.7301 36.5983 30.2663 36.2988 29.9668C36.0775 29.7454 35.8073 29.6348 35.4883 29.6348C35.0879 29.6348 34.7559 29.7829 34.4922 30.0791C34.4238 30.154 34.375 30.2207 34.3457 30.2793V33.2773Z" fill="black"/>
<path d="M19 6.253V19.253M19 6.253C17.832 5.477 16.246 5 14.5 5C12.754 5 11.168 5.477 10 6.253V19.253C11.168 18.477 12.754 18 14.5 18C16.246 18 17.832 18.477 19 19.253M19 6.253C20.168 5.477 21.754 5 23.5 5C25.247 5 26.832 5.477 28 6.253V19.253C26.832 18.477 25.247 18 23.5 18C21.754 18 20.168 18.477 19 19.253" stroke="black" stroke-width="2" stroke-linecap="round" stroke-linejoin="round"/>
</svg>
