<svg width="25" height="30" viewBox="0 0 25 30" fill="none" xmlns="http://www.w3.org/2000/svg">
<path d="M0.00976562 22.2031H1.02539L2.33887 26.998L2.5293 27.8428L2.74414 26.998L4.12109 22.2031H5.05859L6.4209 26.998L6.64062 27.877L6.85059 26.998L8.17383 22.2031H9.15039L7.08984 29H6.15234L4.72168 24.2148L4.56055 23.6045L4.4043 24.2148L2.98828 29H2.05078L0.00976562 22.2031ZM11.0645 22.4961C11.0645 22.6816 11.0026 22.8249 10.8789 22.9258C10.7585 23.0234 10.6071 23.0723 10.4248 23.0723C10.2425 23.0723 10.0911 23.0234 9.9707 22.9258C9.85352 22.8249 9.79492 22.6816 9.79492 22.4961C9.79492 22.3073 9.85352 22.1641 9.9707 22.0664C10.0911 21.9688 10.2425 21.9199 10.4248 21.9199C10.6071 21.9199 10.7585 21.9688 10.8789 22.0664C11.0026 22.1641 11.0645 22.3073 11.0645 22.4961ZM9.92188 23.9609H10.8984V29H9.92188V23.9609ZM13.6719 29.0781C13.265 29.0781 12.8532 29.0488 12.4365 28.9902V28.126C12.8597 28.2269 13.2894 28.2773 13.7256 28.2773C14.598 28.2773 15.0342 28.0934 15.0342 27.7256C15.0342 27.5856 15 27.4814 14.9316 27.4131C14.8307 27.3057 14.6712 27.1982 14.4531 27.0908L13.7402 26.7637C13.278 26.5326 12.9785 26.347 12.8418 26.207C12.5846 25.9466 12.4561 25.6374 12.4561 25.2793C12.4561 24.8757 12.6432 24.5469 13.0176 24.293C13.4212 24.0195 13.9876 23.8828 14.7168 23.8828C15.0846 23.8828 15.4557 23.9089 15.8301 23.9609V24.7959C15.4199 24.721 15.0618 24.6836 14.7559 24.6836C14.4531 24.6836 14.2171 24.7031 14.0479 24.7422C13.8818 24.7812 13.7565 24.8301 13.6719 24.8887C13.5384 24.9798 13.4717 25.0986 13.4717 25.2451C13.4717 25.3883 13.5173 25.5055 13.6084 25.5967C13.7028 25.6846 13.8493 25.7806 14.0479 25.8848L14.7656 26.2314C15.2344 26.4756 15.5355 26.6628 15.6689 26.793C15.9229 27.0404 16.0498 27.3512 16.0498 27.7256C16.0498 28.126 15.848 28.4482 15.4443 28.6924C15.0212 28.9495 14.4303 29.0781 13.6719 29.0781ZM19.7021 24.7227C19.2204 24.7227 18.7907 24.887 18.4131 25.2158V29H17.4365V21.7344H18.4131V24.5029C18.9404 24.0895 19.4857 23.8828 20.0488 23.8828C20.651 23.8828 21.0921 24.0618 21.3721 24.4199C21.665 24.7975 21.8115 25.4062 21.8115 26.2461V29H20.835V26.2461C20.835 25.4388 20.6152 24.957 20.1758 24.8008C20.0358 24.7487 19.8779 24.7227 19.7021 24.7227Z" fill="black"/>
<path d="M16 5H18C18.5304 5 19.0391 5.21071 19.4142 5.58579C19.7893 5.96086 20 6.46957 20 7V13C20 13.5304 19.7893 14.0391 19.4142 14.4142C19.0391 14.7893 18.5304 15 18 15H16V19L12 15H8C7.73733 15.0003 7.47719 14.9486 7.23453 14.8481C6.99187 14.7475 6.77148 14.6 6.586 14.414M6.586 14.414L10 11H14C14.5304 11 15.0391 10.7893 15.4142 10.4142C15.7893 10.0391 16 9.53043 16 9V3C16 2.46957 15.7893 1.96086 15.4142 1.58579C15.0391 1.21071 14.5304 1 14 1H4C3.46957 1 2.96086 1.21071 2.58579 1.58579C2.21071 1.96086 2 2.46957 2 3V9C2 9.53043 2.21071 10.0391 2.58579 10.4142C2.96086 10.7893 3.46957 11 4 11H6V15L6.586 14.414Z" stroke="black" stroke-width="2" stroke-linecap="round" stroke-linejoin="round"/>
</svg>
